<?xml version="1.0" encoding="UTF-8"?>
<svg width="224px" height="224px" viewBox="0 0 224 224" version="1.1" xmlns="http://www.w3.org/2000/svg" xmlns:xlink="http://www.w3.org/1999/xlink">
    <!-- Generator: Sketch 64 (93537) - https://sketch.com -->
    <title>mylogo</title>
    <desc>Created with Sketch.</desc>
    <g id="Page-1" stroke="none" stroke-width="1" fill="none" fill-rule="evenodd">
        <g id="mylogo">
            <path d="M118.125,0 C162.082628,0 200.432287,22.6935339 220.774351,56.3611245 L189.773598,71.009941 C175.002474,48.2570245 148.43897,33.0801688 118.125,33.0801688 C71.733081,33.0801688 34.125,68.6253593 34.125,112.472574 C34.125,156.319788 71.733081,191.864979 118.125,191.864979 C150.950349,191.864979 179.378071,174.069287 193.197386,148.1286 L223.372505,162.38869 C203.82149,198.540911 164.031352,223.291139 118.125,223.291139 C52.8863639,223.291139 0,173.305715 0,111.64557 C0,49.9854241 52.8863639,0 118.125,0 Z" id="Combined-Shape" fill="#5267DF"></path>
            <path d="M119.000001,33.080187 C150.412452,33.080187 177.839219,49.2088846 192.515638,73.1823767 L170.227535,83.7154199 C159.56556,67.5820082 140.60895,56.8489008 119.000001,56.8489008 C85.6665484,56.8489008 58.6444458,82.3887784 58.6444458,113.893814 C58.6444458,145.39885 85.6665484,170.938727 119.000001,170.938727 C142.689814,170.938727 163.191871,158.038973 173.071878,139.265971 L194.755123,149.512778 C180.755302,175.622851 152.088878,193.519006 119.000001,193.519006 C72.1248332,193.519006 34.1250013,157.603553 34.1250013,113.299596 C34.1250013,68.9956398 72.1248332,33.080187 119.000001,33.080187 Z" id="Combined-Shape" stroke="#FFFFFF" stroke-width="1.75" fill="#FA5959" transform="translate(114.439984, 113.299596) rotate(-8.000000) translate(-114.439984, -113.299596) "></path>
            <text id="Д" font-family="Bookerly-Bold, Bookerly" font-size="87.5" font-weight="bold" letter-spacing="-2.61194021" fill="#302F2F">
                <tspan x="83.125" y="136.812236">Д</tspan>
            </text>
        </g>
    </g>
</svg>